<svg xmlns="http://www.w3.org/2000/svg" viewBox="0 0 64 64">
  <defs>
    <linearGradient id="g" x1="8" y1="8" x2="56" y2="58" gradientUnits="userSpaceOnUse">
      <stop stop-color="#f0e0b0"/>
      <stop offset=".5" stop-color="#c5a059"/>
      <stop offset="1" stop-color="#8a6d2f"/>
    </linearGradient>
  </defs>
  <rect width="64" height="64" rx="14" fill="#0a0707"/>
  <path d="M32 55c-9.5-3.8-15.6-11-15.6-18.4C16.4 26.8 23 21 32 21s15.6 5.8 15.6 15.6C47.6 44 41.5 51.2 32 55Z" fill="url(#g)" opacity=".25"/>
  <path d="M32 52c-7.8-3.1-12.8-9-12.8-15.2 0-7.3 5.6-12.1 12.8-12.1S44.8 29.5 44.8 36.8C44.8 43 39.8 48.9 32 52Z" stroke="url(#g)" stroke-width="1.6" fill="none"/>
  <path d="M32 44.5c-5.1-2.2-8.3-6.2-8.3-10.4 0-4.9 3.7-8.2 8.3-8.2s8.3 3.3 8.3 8.2c0 4.2-3.2 8.2-8.3 10.4Z" stroke="url(#g)" stroke-width="1.6" fill="none"/>
  <circle cx="32" cy="34" r="6" fill="url(#g)"/>
  <path d="M32 8v7M18 13l4 6M46 13l-4 6" stroke="url(#g)" stroke-width="1.4" stroke-linecap="round"/>
</svg>
